# xmcd CD database file
#
# Track frame offsets:
#	150
#	7688
#	33538
#	58703
#	81818
#	100108
#	120381
#	139441
#	160411
#	185156
#	201833
#	223866
#	239036
#
# Disc length: 3525 seconds
#
# Revision: 3
# Processed by: cddbd v1.5.2PL0 Copyright (c) Steve Scherf et al.
# Submitted via: CDex 1.70beta2
#
DISCID=bb0dc30d
DTITLE=福耳 - THE BEST ACOUSTIC WORKS
DYEAR=2010
DGENRE=J-Pop
TTITLE0=intro
TTITLE1=星のかけらを探しに行こうAgain <2010Acousticver.>
TTITLE2=奏 <Studio Lｉｖｅ ver.>
TTITLE3=プール <July 2010 ver>
TTITLE4=そろそろいかなくちゃ
TTITLE5=ピアノとギターと愛の詩
TTITLE6=渚にて
TTITLE7=Choose the Light 2010
TTITLE8=train <with PIANO>
TTITLE9=明日のラストナイト <Acoustic ver.>
TTITLE10=恋するサンビスタ～HappyTune250%～
TTITLE11=なごり雪
TTITLE12=やわらかなサイクル
EXTD=YEAR: 2010
EXTT0=
EXTT1=
EXTT2=
EXTT3=
EXTT4=
EXTT5=
EXTT6=
EXTT7=
EXTT8=
EXTT9=
EXTT10=
EXTT11=
EXTT12=
PLAYORDER=
